<?xml version="1.0" standalone="no"?>
<!DOCTYPE svg PUBLIC "-//W3C//DTD SVG 20010904//EN"
 "http://www.w3.org/TR/2001/REC-SVG-20010904/DTD/svg10.dtd">
<svg version="1.0" xmlns="http://www.w3.org/2000/svg"
 width="16.000000pt" height="16.000000pt" viewBox="0 0 16.000000 16.000000"
 preserveAspectRatio="xMidYMid meet">

<g transform="translate(0.000000,16.000000) scale(0.100000,-0.100000)"
fill="#000000" stroke="none">
<path d="M97 104 c-24 -24 7 -75 35 -58 6 4 8 1 6 -7 -3 -8 -13 -13 -23 -12
-11 1 -14 -2 -8 -8 27 -27 67 36 46 70 -11 17 -44 26 -56 15z m43 -24 c0 -13
-7 -20 -20 -20 -13 0 -20 7 -20 20 0 13 7 20 20 20 13 0 20 -7 20 -20z"/>
<path d="M50 63 l-12 -28 -9 24 c-5 13 -12 22 -14 19 -8 -8 13 -58 24 -58 10
0 36 58 29 65 -3 3 -10 -7 -18 -22z"/>
</g>
</svg>
