<?xml version="1.0" encoding="UTF-8"?>
<svg version="1.1" xmlns="http://www.w3.org/2000/svg" width="1241" height="380">
<path d="M0 0 C7.07962805 5.5693074 12.92931907 13.83158526 15.0078125 22.6328125 C15.46554703 28.2093076 15.45509905 33.77092482 15.44140625 39.36328125 C15.44597596 41.00222488 15.45128387 42.6411666 15.45729065 44.28010559 C15.46619922 47.70870767 15.46382685 51.1370766 15.45385742 54.56567383 C15.44240693 58.92517138 15.46252998 63.28385414 15.49177456 67.64324474 C15.51027077 71.02796922 15.50981704 74.41250359 15.50413704 77.79726601 C15.50398526 79.40257212 15.50990866 81.00789234 15.52242851 82.61314964 C15.61806666 96.89144272 13.2460637 108.61492407 5.0078125 120.6328125 C4.4303125 121.5196875 3.8528125 122.4065625 3.2578125 123.3203125 C-7.27845202 134.14925103 -21.19354109 138.66792213 -35.96923828 138.9753418 C-46.29498361 139.07051325 -56.04402686 138.74644848 -66.1171875 136.3203125 C-67.00470703 136.10745605 -67.89222656 135.89459961 -68.80664062 135.67529297 C-71.25 135.01953125 -71.25 135.01953125 -74.9921875 133.6328125 C-76.30436126 129.69629122 -75.10468059 127.23396764 -73.7421875 123.5078125 C-73.41541016 122.53908203 -73.41541016 122.53908203 -73.08203125 121.55078125 C-72.4140625 119.6875 -72.4140625 119.6875 -70.9921875 116.6328125 C-67.12692423 115.34439141 -65.08269775 116.15800186 -61.1171875 117.0703125 C-46.81617688 120.01645059 -30.40933425 121.33462875 -17.703125 113.16015625 C-12.2477523 108.9644787 -9.73784905 104.21736273 -7.9921875 97.6328125 C-7.43962958 92.6118059 -7.42727625 87.61522309 -7.4609375 82.5703125 C-7.45823546 81.12882222 -7.45434716 79.68733373 -7.44934082 78.24584961 C-7.44347905 75.24021877 -7.45189984 72.23506686 -7.47070312 69.22949219 C-7.49349156 65.40327315 -7.48035036 61.57817689 -7.45641327 57.7519989 C-7.44186428 54.77998606 -7.44660247 51.80823343 -7.45692444 48.83621216 C-7.45956671 47.42660382 -7.45641139 46.01697079 -7.44700623 44.60739136 C-7.38941814 33.55462182 -9.00449417 24.28442682 -16.0234375 15.45703125 C-23.11130013 8.88950774 -32.38005038 6.29033905 -41.86328125 6.48828125 C-51.0484144 7.1118591 -58.79399573 10.54226667 -65.4296875 17.0078125 C-71.60920361 27.38939957 -72.66131582 39.71321775 -69.8671875 51.3828125 C-67.23202785 59.64927223 -63.94357419 64.9844057 -56.1171875 69.0703125 C-43.39425762 74.74065532 -33.976883 74.44971567 -20.9921875 69.6328125 C-19.93257812 69.09269531 -18.87296875 68.55257812 -17.78125 67.99609375 C-14.9921875 66.6328125 -14.9921875 66.6328125 -11.9921875 66.6328125 C-11.9921875 73.8928125 -11.9921875 81.1528125 -11.9921875 88.6328125 C-28.85905837 93.91435792 -47.21853295 97.44454305 -63.9921875 89.6328125 C-67.18592623 87.84470129 -70.09205007 85.85992226 -72.9921875 83.6328125 C-73.8584375 83.0553125 -74.7246875 82.4778125 -75.6171875 81.8828125 C-86.28331696 71.77805827 -91.93024858 57.86282342 -92.39916992 43.3815918 C-92.58270424 27.60204524 -88.65823123 14.52740528 -77.6171875 2.8203125 C-56.16350119 -17.10777834 -23.29073053 -15.98383468 0 0 Z " fill="#EF2000" transform="translate(689.9921875,205.3671875)"/>
<path d="M0 0 C16.37659586 -0.67007348 31.41241097 4.71007433 43.82421875 15.15234375 C51.42271397 22.20808931 56.85278195 30.31367555 57.35153675 40.92348766 C57.42274141 44.61013443 57.37644987 48.2901585 57.3125 51.9765625 C57.30315381 53.57508732 57.29604625 55.17362665 57.2910614 56.77217102 C57.27213319 60.94323518 57.22315905 65.11340394 57.1675415 69.28411865 C57.11603923 73.55452366 57.09348182 77.82507588 57.06835938 82.09570312 C57.01502256 90.44836978 56.92720717 98.80014161 56.82421875 107.15234375 C49.89421875 107.15234375 42.96421875 107.15234375 35.82421875 107.15234375 C35.81487305 105.32654785 35.80552734 103.50075195 35.79589844 101.61962891 C35.76021907 95.5525693 35.70632573 89.48587947 35.64031601 83.41907692 C35.60099123 79.74469983 35.56873017 76.07055701 35.55322266 72.39599609 C35.5379559 68.84248639 35.50333713 65.28962137 35.45590973 61.7364006 C35.43409235 59.73709717 35.43175366 57.73761129 35.42987061 55.7381897 C35.28894563 46.87236782 34.2302955 39.40993969 28.57421875 32.33984375 C18.83431961 24.5921967 10.49447377 22.33984412 -2 23.6171875 C-10.54310055 25.05679977 -18.94775359 28.91764284 -24.48828125 35.77734375 C-29.60806422 43.90876377 -30.50236521 54.2921249 -28.41796875 63.5 C-26.35601089 70.70061662 -24.64853148 75.99430843 -18.0390625 80.1015625 C-8.55612143 84.74392639 0.12659176 88.93444473 10.82421875 86.15234375 C17.94004478 83.35992111 23.44219684 79.53436566 28.82421875 74.15234375 C30.12897493 76.76185611 29.93723447 78.6793566 29.921875 81.59765625 C29.91704102 83.21220703 29.91704102 83.21220703 29.91210938 84.859375 C29.89954102 86.55126953 29.89954102 86.55126953 29.88671875 88.27734375 C29.88220703 89.41300781 29.87769531 90.54867187 29.87304688 91.71875 C29.8612349 94.53000013 29.84476382 97.34114605 29.82421875 100.15234375 C27.26270192 100.96805593 24.70009247 101.78000506 22.13671875 102.58984375 C21.41548828 102.81994141 20.69425781 103.05003906 19.95117188 103.28710938 C6.42850468 107.54767575 -10.24929518 108.86126561 -23.17578125 102.15234375 C-36.73430518 94.12236233 -45.12115197 81.93756651 -49.05078125 66.71484375 C-52.21088986 50.95192102 -49.39419408 36.89308375 -41.17578125 23.15234375 C-32.67915348 10.6225066 -22.67206466 3.98763494 -7.8515625 0.625 C-5.24458335 0.23897672 -2.62686005 0.18392736 0 0 Z " fill="#010101" transform="translate(481.17578125,190.84765625)"/>
<path d="M0 0 C1.28519531 0.00064453 2.57039063 0.00128906 3.89453125 0.00195312 C4.56307129 0.01025146 5.23161133 0.0185498 5.92041016 0.02709961 C7.96166452 0.05069933 10.00161255 0.04765778 12.04296875 0.04101562 C22.0683095 0.09632091 22.0683095 0.09632091 25.46875 2.36328125 C25.84106445 5.40429688 25.84106445 5.40429688 25.83203125 9.26953125 C25.83277901 10.29028748 25.83277901 10.29028748 25.83354187 11.33166504 C25.83120082 12.77078165 25.82147029 14.2099023 25.80493164 15.64892578 C25.78134002 17.85486362 25.78436947 20.05959311 25.79101562 22.265625 C25.7478325 33.08419875 25.7478325 33.08419875 23.46875 35.36328125 C21.31396484 35.59033203 21.31396484 35.59033203 18.6796875 35.55859375 C17.73867188 35.55214844 16.79765625 35.54570313 15.828125 35.5390625 C14.35085938 35.51392578 14.35085938 35.51392578 12.84375 35.48828125 C11.85117187 35.47925781 10.85859375 35.47023437 9.8359375 35.4609375 C7.37996866 35.43732241 4.92447832 35.40438924 2.46875 35.36328125 C2.49493408 36.55405273 2.52111816 37.74482422 2.5480957 38.97167969 C2.63863561 43.39206126 2.69601286 47.81236102 2.7434082 52.23339844 C2.76854381 54.14629908 2.80265784 56.05910376 2.84594727 57.97167969 C2.90664252 60.72224598 2.93496845 63.47154224 2.95703125 66.22265625 C2.98283768 67.07696228 3.0086441 67.93126831 3.03523254 68.8114624 C3.03716564 72.90910107 3.02702615 74.7086121 0.296875 77.91015625 C-2.86555356 79.53505048 -4.7346785 79.82951807 -8.26953125 79.75390625 C-9.86958008 79.73457031 -9.86958008 79.73457031 -11.50195312 79.71484375 C-13.15614258 79.66457031 -13.15614258 79.66457031 -14.84375 79.61328125 C-15.96587891 79.59523438 -17.08800781 79.5771875 -18.24414062 79.55859375 C-21.00738447 79.51155981 -23.76887698 79.44584442 -26.53125 79.36328125 C-26.50506592 80.33152832 -26.47888184 81.29977539 -26.4519043 82.29736328 C-26.36102075 85.90894221 -26.3038645 89.52042128 -26.2565918 93.1328125 C-26.23153373 94.69255604 -26.19747699 96.25218315 -26.15405273 97.81152344 C-26.09300807 100.06083968 -26.06495574 102.30859685 -26.04296875 104.55859375 C-26.01716232 105.24946075 -25.9913559 105.94032776 -25.96476746 106.65213013 C-25.96236001 110.86092861 -26.71495303 114.14181934 -29.68806458 117.25085449 C-33.86387066 119.77109926 -38.93226161 119.18834522 -43.65625 119.125 C-44.83590332 119.12836868 -46.01555664 119.13173737 -47.23095703 119.13520813 C-49.72237513 119.13490943 -52.21382995 119.11967503 -54.70507812 119.09057617 C-58.5180683 119.05091835 -62.32757804 119.06986614 -66.140625 119.09570312 C-68.56251349 119.08814373 -70.98439426 119.07719001 -73.40625 119.0625 C-74.54594238 119.0694841 -75.68563477 119.0764682 -76.85986328 119.08366394 C-81.50370991 119.00083538 -84.65625794 118.85251484 -88.74975586 116.5637207 C-91.49659793 111.62904171 -91.22609292 107.01624622 -91.16015625 101.45703125 C-91.16256821 100.29957397 -91.16498016 99.1421167 -91.16746521 97.94958496 C-91.1664868 95.50525482 -91.15309499 93.06090251 -91.12817383 90.61669922 C-91.09387135 86.87651244 -91.10751622 83.13868887 -91.12695312 79.3984375 C-91.12005455 77.02212536 -91.11038208 74.64581932 -91.09765625 72.26953125 C-91.10261612 71.15171265 -91.10757599 70.03389404 -91.11268616 68.88220215 C-90.99525109 61.13604319 -90.99525109 61.13604319 -88.62084961 57.18164062 C-84.95553021 53.99209759 -81.99095215 54.23078666 -77.3359375 54.265625 C-76.62849396 54.26703995 -75.92105042 54.2684549 -75.19216919 54.26991272 C-72.93015331 54.27551525 -70.66823602 54.28806807 -68.40625 54.30078125 C-66.87369935 54.30579593 -65.34114714 54.31035889 -63.80859375 54.31445312 C-60.04944112 54.32548548 -56.29036228 54.34275173 -52.53125 54.36328125 C-52.54696045 53.66243408 -52.5626709 52.96158691 -52.57885742 52.23950195 C-52.64137412 49.05167774 -52.68029381 45.86398274 -52.71875 42.67578125 C-52.74388672 41.57298828 -52.76902344 40.47019531 -52.79492188 39.33398438 C-52.80458984 38.26728516 -52.81425781 37.20058594 -52.82421875 36.1015625 C-52.8399292 35.12227783 -52.85563965 34.14299316 -52.87182617 33.1340332 C-52.47019729 29.86658795 -51.45925879 28.00788471 -49.53125 25.36328125 C-46.25233075 23.72382162 -42.62511466 24.24297947 -39.0234375 24.265625 C-37.76250778 24.26774742 -37.76250778 24.26774742 -36.47610474 24.26991272 C-33.78611725 24.27551888 -31.09621241 24.28807239 -28.40625 24.30078125 C-26.58463662 24.30579546 -24.76302193 24.3103585 -22.94140625 24.31445312 C-18.47132223 24.32549031 -14.00130014 24.34275905 -9.53125 24.36328125 C-9.54696045 23.74283936 -9.5626709 23.12239746 -9.57885742 22.4831543 C-9.64121214 19.67245597 -9.68024148 16.86190313 -9.71875 14.05078125 C-9.74388672 13.07431641 -9.76902344 12.09785156 -9.79492188 11.09179688 C-9.80458984 10.15400391 -9.81425781 9.21621094 -9.82421875 8.25 C-9.8399292 7.38592529 -9.85563965 6.52185059 -9.87182617 5.6315918 C-9.53125 3.36328125 -9.53125 3.36328125 -8.42114258 1.58056641 C-5.6129557 -0.22819471 -3.31666945 -0.00837772 0 0 Z M-45.99609375 31.07617188 C-47.80329696 33.76858277 -48.00030895 35.13186412 -47.921875 38.34765625 C-47.90898437 39.28222656 -47.89609375 40.21679688 -47.8828125 41.1796875 C-47.84929687 42.14777344 -47.81578125 43.11585937 -47.78125 44.11328125 C-47.76320313 45.09683594 -47.74515625 46.08039063 -47.7265625 47.09375 C-47.67949126 49.51791908 -47.61375742 51.94010184 -47.53125 54.36328125 C-46.50644531 54.37746094 -45.48164063 54.39164063 -44.42578125 54.40625 C-43.06506029 54.45317141 -41.70438459 54.50141869 -40.34375 54.55078125 C-39.67021484 54.55658203 -38.99667969 54.56238281 -38.30273438 54.56835938 C-34.60751726 54.73058842 -32.62108416 55.29925052 -29.59375 57.45703125 C-27.04715474 61.04541548 -26.84118639 63.30888325 -26.71875 67.67578125 C-26.67105469 68.93003906 -26.62335938 70.18429688 -26.57421875 71.4765625 C-26.56003906 72.42917969 -26.54585938 73.38179687 -26.53125 74.36328125 C-23.09382082 74.42130823 -19.65651747 74.45688611 -16.21875 74.48828125 C-15.24228516 74.50503906 -14.26582031 74.52179688 -13.25976562 74.5390625 C-12.32197266 74.54550781 -11.38417969 74.55195312 -10.41796875 74.55859375 C-9.12185669 74.5743042 -9.12185669 74.5743042 -7.79956055 74.59033203 C-5.24944279 74.51418293 -5.24944279 74.51418293 -2.53125 72.36328125 C-2.26457461 69.526008 -2.18333766 66.9094508 -2.23828125 64.07421875 C-2.24464851 62.8465831 -2.24464851 62.8465831 -2.25114441 61.59414673 C-2.26796321 58.97519289 -2.30562026 56.35700323 -2.34375 53.73828125 C-2.35879274 51.96485485 -2.37248186 50.19141641 -2.38476562 48.41796875 C-2.41787708 44.06611095 -2.46968048 39.71482574 -2.53125 35.36328125 C-3.500625 35.11578125 -4.47 34.86828125 -5.46875 34.61328125 C-6.9846875 33.99453125 -6.9846875 33.99453125 -8.53125 33.36328125 C-9.40625 31.23828125 -9.40625 31.23828125 -9.53125 29.36328125 C-14.30006876 29.2642799 -19.0682873 29.19175197 -23.83789062 29.14355469 C-25.45974143 29.12345981 -27.08151997 29.09617871 -28.703125 29.06152344 C-31.0366398 29.01290855 -33.36919557 28.99029236 -35.703125 28.97265625 C-36.42618835 28.95201111 -37.14925171 28.93136597 -37.89422607 28.91009521 C-41.25481568 28.90860299 -43.20735891 29.13820004 -45.99609375 31.07617188 Z " fill="#87C023" transform="translate(507.53125,48.63671875)"/>
<path d="M0 0 C8.96892697 6.772995 15.88976249 15.05859407 19 26 C19.24050903 29.30307007 19.24050903 29.30307007 19.22705078 32.92333984 C19.22734283 33.5874588 19.22763489 34.25157776 19.22793579 34.93582153 C19.22655261 37.11099737 19.21103988 39.28582218 19.1953125 41.4609375 C19.19157876 42.97693698 19.18873349 44.49293889 19.18673706 46.00894165 C19.17912902 49.98409782 19.1595051 53.95910606 19.1373291 57.9342041 C19.11680948 61.9964803 19.1077223 66.05878058 19.09765625 70.12109375 C19.07625629 78.08080436 19.04109748 86.04036669 19 94 C11.74 94 4.48 94 -3 94 C-3.00410889 92.11361816 -3.00821777 90.22723633 -3.01245117 88.28369141 C-3.03192916 82.01703245 -3.0743644 75.75084925 -3.13209057 69.48443031 C-3.16622939 65.688923 -3.19144989 61.89381257 -3.19555664 58.09814453 C-3.19986812 54.42784563 -3.22856236 50.75844 -3.27343178 47.08842087 C-3.28631675 45.6956136 -3.29074671 44.30269893 -3.28615379 42.90983963 C-3.26434523 34.27959844 -3.84586556 27.17099348 -9 20 C-16.0502206 12.99238181 -23.67157695 10.86079693 -33.4375 10.625 C-43.67692527 10.87050071 -52.17195907 13.13112614 -60 20 C-67.29142742 28.74971291 -67.77826051 39.061729 -67.19970703 49.9453125 C-66.60802805 56.03280676 -64.48392351 61.04970053 -60.8125 65.875 C-51.33017608 73.03942252 -41.03121668 77.48050333 -29 76 C-21.80958484 74.28594301 -16.98389387 70.68396106 -11.71484375 65.609375 C-10 64 -10 64 -9 64 C-8.505 75.385 -8.505 75.385 -8 87 C-24.89657664 92.94509178 -40.41143953 96.79818966 -58 91 C-61.55443211 89.27590725 -64.77426566 87.27377891 -68 85 C-68.9075 84.38125 -69.815 83.7625 -70.75 83.125 C-80.34182661 74.06605265 -87.55595556 60.2199208 -88.3359375 46.95703125 C-88.70410893 29.91944068 -83.49716294 16.60128627 -72.5234375 3.5859375 C-66.28553266 -2.80646653 -58.64016456 -6.88071435 -50 -9 C-48.89205078 -9.27263672 -48.89205078 -9.27263672 -47.76171875 -9.55078125 C-31.44439623 -12.20494262 -13.70633178 -9.50531987 0 0 Z " fill="#EF2000" transform="translate(972,200)"/>
<path d="M0 0 C8.08112744 6.62737965 14.68059219 14.43445219 17.21484375 24.81640625 C17.62533083 29.96416882 17.56503641 35.09523759 17.5078125 40.25390625 C17.50220846 41.74462454 17.49794218 43.2353484 17.49494934 44.72607422 C17.48356403 48.62566725 17.45415243 52.52491834 17.4208374 56.42437744 C17.38999928 60.41307959 17.37641481 64.40183767 17.36132812 68.390625 C17.32927558 76.19939175 17.27656055 84.00780728 17.21484375 91.81640625 C9.95484375 91.81640625 2.69484375 91.81640625 -4.78515625 91.81640625 C-4.79973877 89.98013672 -4.81432129 88.14386719 -4.8293457 86.25195312 C-4.8811502 80.16097517 -4.94647671 74.07025743 -5.02087116 67.97951508 C-5.06545455 64.28942583 -5.10473637 60.59944392 -5.1315918 56.90917969 C-5.15774595 53.34279773 -5.19823171 49.77683155 -5.24834251 46.21070862 C-5.27296064 44.19912152 -5.28302461 42.18737316 -5.2928009 40.17565918 C-5.44305041 30.75813801 -6.48185969 23.47618327 -13.0546875 16.3515625 C-19.89653054 10.28193651 -29.22853855 8.33809461 -38.1484375 8.5703125 C-48.04005631 9.49353026 -56.9876366 13.26491325 -64.22265625 20.12890625 C-69.92055801 29.92929727 -71.02214511 41.02028125 -68.53515625 51.94140625 C-66.21563613 60.44987636 -62.22488986 65.2627762 -54.78515625 69.81640625 C-46.75946187 73.94727836 -38.61111025 76.06188194 -29.72265625 73.75390625 C-23.90527926 71.7627851 -18.4453999 68.57234212 -14.15625 64.12890625 C-12.78515625 62.81640625 -12.78515625 62.81640625 -10.78515625 62.81640625 C-10.78515625 70.40640625 -10.78515625 77.99640625 -10.78515625 85.81640625 C-13.30140625 86.62078125 -15.81765625 87.42515625 -18.41015625 88.25390625 C-19.19084473 88.5058374 -19.9715332 88.75776855 -20.77587891 89.01733398 C-34.23029262 93.2681636 -49.85311474 94.06947423 -62.78515625 87.81640625 C-66.01311952 86.05523761 -68.91016169 84.10637285 -71.78515625 81.81640625 C-72.3884375 81.33816406 -72.99171875 80.85992187 -73.61328125 80.3671875 C-84.3191412 70.79460552 -89.98151994 55.99633822 -90.76953125 41.9375 C-90.84756874 26.34951092 -84.29416571 12.72884222 -74.140625 1.08984375 C-54.46676204 -17.8988598 -20.79439977 -15.60422543 0 0 Z " fill="#EF2000" transform="translate(806.78515625,203.18359375)"/>
<path d="M0 0 C10.89 0.495 10.89 0.495 22 1 C21.91418187 9.82391744 21.82027036 18.64764998 21.71247292 27.47132683 C21.66272344 31.56939241 21.61639324 35.66743485 21.578125 39.765625 C21.54100032 43.72743342 21.4945704 47.68903746 21.44193649 51.6506691 C21.42353581 53.15513617 21.40837619 54.65964681 21.39665604 56.16418076 C21.286527 69.82431187 20.742511 81.45997714 11.1796875 92.0078125 C5.65617143 97.17352996 -0.8482162 100.61607207 -8 103 C-8.33 117.52 -8.66 132.04 -9 147 C-16.26 147 -23.52 147 -31 147 C-31 132.48 -31 117.96 -31 103 C-33.97 102.34 -36.94 101.68 -40 101 C-49.24304891 97.73079662 -57.00035587 91.41387325 -61.5 82.625 C-63.51130072 77.76435659 -64.19205056 73.89008407 -64.31640625 68.6953125 C-64.33723267 67.95555176 -64.35805908 67.21579102 -64.3795166 66.45361328 C-64.44597857 64.01085097 -64.50470336 61.56798172 -64.5625 59.125 C-64.58367889 58.29240662 -64.60485779 57.45981323 -64.62667847 56.60198975 C-65.09434249 38.06762143 -65.09644462 19.53879951 -65 1 C-58.73 1 -52.46 1 -46 1 C-45.99589111 3.07337646 -45.99178223 5.14675293 -45.98754883 7.28295898 C-45.9702933 14.16026808 -45.92569535 21.03720854 -45.86790943 27.91429043 C-45.83372812 32.08087187 -45.80854336 36.24709011 -45.80444336 40.41381836 C-45.80014121 44.44069169 -45.77152186 48.46674693 -45.72656822 52.49336433 C-45.71365399 54.02376591 -45.70926387 55.55426569 -45.71384621 57.08471489 C-45.73342015 65.61307928 -45.66559844 73.12583963 -40 80 C-34.30998041 84.82414704 -27.76112677 86.5305797 -20.39453125 86.3046875 C-12.64194316 85.31822441 -7.35562693 82.10980697 -2.375 76.1953125 C0.68092221 71.31625488 1.24069142 66.7491985 1.13525391 61.07666016 C1.12579239 60.4125412 1.11633087 59.74842224 1.10658264 59.06417847 C1.07314813 56.88884467 1.02496922 54.71411017 0.9765625 52.5390625 C0.95037016 51.02307663 0.9251052 49.50707447 0.90072632 47.99105835 C0.83432208 44.01576 0.75537699 40.04080728 0.67376709 36.0657959 C0.59260511 32.00363351 0.52337591 27.94126939 0.453125 23.87890625 C0.31372324 15.91901771 0.15996139 7.95950195 0 0 Z " fill="#EF2000" transform="translate(1150,192)"/>
<path d="M0 0 C6.27 0 12.54 0 19 0 C19.00410889 2.10890625 19.00821777 4.2178125 19.01245117 6.390625 C19.02969375 13.37969712 19.07427032 20.36840578 19.13209057 27.35725403 C19.16629624 31.59224447 19.19146047 35.82687663 19.19555664 40.06201172 C19.19985351 44.15371424 19.22842977 48.24460945 19.27343178 52.33605957 C19.28636272 53.89240811 19.29073012 55.44885349 19.28615379 57.00524902 C19.14484649 68.95448381 19.14484649 68.95448381 25 79 C27.00868968 80.86091545 27.00868968 80.86091545 29.125 81.9375 C29.78757812 82.31777344 30.45015625 82.69804687 31.1328125 83.08984375 C37.37145191 86.13085417 45.02224116 85.96254806 51.6796875 84.3515625 C57.05267157 82.23493241 60.44408134 79.20312014 63 74 C64.16613604 70.38156633 64.15768169 66.90414032 64.20532227 63.12011719 C64.21522186 62.43678314 64.22512146 61.7534491 64.23532104 61.04940796 C64.26682044 58.79859846 64.29164752 56.54776789 64.31640625 54.296875 C64.33698577 52.73316917 64.35798251 51.16946878 64.37937927 49.60577393 C64.43449686 45.49589449 64.48395148 41.38596572 64.53222656 37.27600098 C64.58251702 33.07978946 64.63816366 28.88364935 64.69335938 24.6875 C64.80081477 16.45839214 64.90179246 8.22922342 65 0 C71.6 0 78.2 0 85 0 C86.38040059 2.76080118 86.14249299 5.00537501 86.16113281 8.09521484 C86.17074036 9.37770111 86.1803479 10.66018738 86.19024658 11.98153687 C86.19509843 13.39133526 86.19937631 14.80113574 86.203125 16.2109375 C86.20888094 17.6590678 86.21463861 19.10719809 86.22039795 20.55532837 C86.23091749 23.60020298 86.23675191 26.64505117 86.24023438 29.68994141 C86.24567947 33.56080223 86.26961656 37.43130418 86.29820633 41.30205345 C86.317 44.29982453 86.3220474 47.29751271 86.32357025 50.29533768 C86.32656676 51.72005775 86.33449164 53.14477745 86.34775543 54.56943893 C86.48945003 70.97893176 83.7000352 83.65249518 72.359375 95.734375 C63.34591186 104.38968729 51.59169412 107.40207334 39.328125 107.28125 C27.32783832 106.26714127 17.14841506 101.03274914 8.890625 92.43359375 C-1.04550724 79.64390287 -1.31090029 65.12086477 -1.1875 49.75 C-1.18063159 48.01619604 -1.17412454 46.28239062 -1.16796875 44.54858398 C-1.0928243 29.68630724 -0.65316656 14.84787555 0 0 Z " fill="#020202" transform="translate(326,193)"/>
<path d="M0 0 C7.26 0 14.52 0 22 0 C29.90726941 19.12374849 37.48361347 38.36863373 44.97998047 57.65673828 C45.36293777 58.64010666 45.74589508 59.62347504 46.14045715 60.63664246 C46.86534399 62.49822609 47.58864262 64.36042919 48.31010437 66.2233429 C48.63517471 67.0577037 48.96024506 67.89206451 49.29516602 68.75170898 C49.57731461 69.47857407 49.8594632 70.20543915 50.15016174 70.95433044 C51.00971908 73.02339507 51.97429619 75.00876508 53 77 C53.21804794 76.38930664 53.43609589 75.77861328 53.66075134 75.14941406 C55.9793283 68.65690206 58.30060499 62.16535949 60.62329102 55.67431641 C61.48397711 53.26797687 62.34402736 50.86140978 63.20336914 48.45458984 C68.99110402 32.24622289 74.91920186 16.10092263 81 0 C88.59 0 96.18 0 104 0 C103.29133067 4.96068531 102.75660029 8.17963648 101.02563477 12.63037109 C100.61753067 13.69033295 100.20942657 14.7502948 99.78895569 15.84237671 C99.34426437 16.97462677 98.89957306 18.10687683 98.44140625 19.2734375 C97.97822495 20.46941559 97.51504364 21.66539368 97.03782654 22.89761353 C95.80381472 26.08318192 94.5607281 29.26513474 93.31585693 32.44647217 C92.08803388 35.58959175 90.86981521 38.73642754 89.65039062 41.8828125 C87.25451837 48.05944187 84.83779579 54.2277584 82.41387939 60.39343262 C81.01937092 63.95058805 79.63777916 67.51256661 78.25732422 71.07519531 C77.3895231 73.29252353 76.52122049 75.50965556 75.65234375 77.7265625 C75.27034317 78.72078217 74.88834259 79.71500183 74.49476624 80.73934937 C66.90276983 99.97032524 66.90276983 99.97032524 58 104 C54.13229804 105.19410604 50.93376164 105.27234714 47 104.125 C38.1758171 97.87453711 34.09673667 89.79139967 30.296875 79.91015625 C29.79078391 78.63591685 29.28282292 77.36241876 28.77313232 76.08961487 C27.70712061 73.42038186 26.65137657 70.74741919 25.60327148 68.07110596 C24.02991948 64.06192434 22.41623297 60.06993712 20.79101562 56.08154297 C18.38781856 50.18039791 16.00071282 44.27308995 13.62818146 38.35954857 C12.28789074 35.01915633 10.94474016 31.67998221 9.59472656 28.34350586 C8.25207161 25.02517687 6.91612687 21.70422414 5.5851059 18.38121223 C4.84499452 16.53810412 4.09826243 14.69765899 3.35137939 12.85728455 C2.68873077 11.19627464 2.68873077 11.19627464 2.01269531 9.50170898 C1.62253235 8.53216782 1.23236938 7.56262665 0.8303833 6.56370544 C0 4 0 4 0 0 Z " fill="#060606" transform="translate(31,193)"/>
<path d="M0 0 C15.23304591 1.69256066 27.79453227 6.30776797 37.85546875 18.30078125 C39 20 39 20 39 22 C41.3666146 19.77425531 43.14171257 17.40735102 45 14.75 C52.18136786 5.52539777 61.59886214 1.5164075 73 0 C76.38251334 -0.19080845 79.60894377 -0.15183834 83 0 C83.495 9.405 83.495 9.405 84 19 C82.205625 19.391875 80.41125 19.78375 78.5625 20.1875 C68.01770337 22.86711891 60.71398304 27.41736537 54.90234375 36.765625 C51.53767632 43.96444834 51.86348408 53.39283333 53.7265625 60.9453125 C54.65986877 63.42654136 55.71331641 65.68396954 57 68 C57.36222656 68.65613281 57.72445313 69.31226563 58.09765625 69.98828125 C61.90159827 76.01011489 66.79535294 79.141058 73.62890625 80.97265625 C77.07128701 81.71948961 80.53488901 82.36695088 84 83 C84 89.27 84 95.54 84 102 C69.837316 102.6091477 59.2860831 99.5404763 48.69921875 89.90625 C43.31228223 84.62456446 43.31228223 84.62456446 42 82 C41.34 82 40.68 82 40 82 C39.34 83.010625 38.68 84.02125 38 85.0625 C31.08316082 95.08278901 18.52885946 99.73202765 7 102 C4.69 102 2.38 102 0 102 C0 95.4 0 88.8 0 82 C1.65 81.7525 3.3 81.505 5 81.25 C12.89845085 79.77981338 18.62342312 77.39759992 23.68359375 71 C29.04007879 62.86195745 30.8767207 54.6439277 30 45 C28.05964129 36.37358599 24.15070639 29.34284255 16.640625 24.46875 C10.99115605 21.45102125 6.55079788 20.45573286 0 19 C0 12.73 0 6.46 0 0 Z " fill="#EF2000" transform="translate(996,193)"/>
<path d="M0 0 C6.6 0 13.2 0 20 0 C20 7.92 20 15.84 20 24 C32.87 24 45.74 24 59 24 C59 31.26 59 38.52 59 46 C46.13 46 33.26 46 20 46 C20.07402989 53.43872769 20.15689361 60.87626006 20.26245117 68.31445312 C20.29567514 70.84401225 20.32371489 73.37364505 20.34643555 75.90332031 C20.38002704 79.54263667 20.43234754 83.18127934 20.48828125 86.8203125 C20.49467117 87.94865509 20.5010611 89.07699768 20.50764465 90.23953247 C20.54956803 98.1113116 20.54956803 98.1113116 24 105 C28.11048866 106.99355453 31.96676764 107.28476479 36.4921875 107.4140625 C37.69101562 107.45273437 38.88984375 107.49140625 40.125 107.53125 C41.3625 107.5621875 42.6 107.593125 43.875 107.625 C45.13570313 107.66367187 46.39640625 107.70234375 47.6953125 107.7421875 C50.79664173 107.83616717 53.89830045 107.91916009 57 108 C57 114.6 57 121.2 57 128 C52.01900014 128.06918055 47.0396927 128.12881819 42.05859375 128.16479492 C40.36712978 128.17980505 38.67570422 128.20021963 36.984375 128.22631836 C34.54156976 128.26304686 32.0992827 128.27980411 29.65625 128.29296875 C28.53700134 128.31619453 28.53700134 128.31619453 27.3951416 128.33988953 C19.77165916 128.34228826 13.28883761 126.06806912 7.60546875 120.87890625 C2.72214444 115.16387221 -0.1292168 108.02524194 -0.12025452 100.53277588 C-0.12162918 99.64379105 -0.12300385 98.75480621 -0.12442017 97.83888245 C-0.11902725 96.38771278 -0.11902725 96.38771278 -0.11352539 94.90722656 C-0.11367142 93.88251755 -0.11381744 92.85780853 -0.1139679 91.80204773 C-0.11327121 88.41488529 -0.10549015 85.02777783 -0.09765625 81.640625 C-0.09579121 79.29221629 -0.09436771 76.94380719 -0.09336853 74.59539795 C-0.08955016 68.41403123 -0.07972564 62.232688 -0.06866455 56.05133057 C-0.05843584 49.74385903 -0.05386778 43.43638369 -0.04882812 37.12890625 C-0.0381028 24.75259218 -0.02051146 12.37630172 0 0 Z " fill="#030303" transform="translate(257,169)"/>
<path d="M0 0 C6.93 0 13.86 0 21 0 C21 49.5 21 99 21 150 C14.07 150 7.14 150 0 150 C0 100.5 0 51 0 0 Z " fill="#000000" transform="translate(557,147)"/>
<path d="M0 0 C6.93 0 13.86 0 21 0 C21 48.84 21 97.68 21 148 C14.07 148 7.14 148 0 148 C0 99.16 0 50.32 0 0 Z " fill="#EF2000" transform="translate(843,147)"/>
<path d="M0 0 C1 1 1 1 1.11352539 2.94946289 C1.10828857 3.7821167 1.10305176 4.61477051 1.09765625 5.47265625 C1.09443359 6.37177734 1.09121094 7.27089844 1.08789062 8.19726562 C1.07532227 9.61555664 1.07532227 9.61555664 1.0625 11.0625 C1.05798828 12.01189453 1.05347656 12.96128906 1.04882812 13.93945312 C1.0370011 16.29303065 1.02052025 18.64648477 1 21 C-0.00123901 20.98151001 -0.00123901 20.98151001 -1.02270508 20.96264648 C-2.35144653 20.94826538 -2.35144653 20.94826538 -3.70703125 20.93359375 C-4.58077393 20.92126709 -5.4545166 20.90894043 -6.35473633 20.89624023 C-12.3762023 21.13243064 -17.26462889 22.96025971 -21.75 27 C-27.69927805 33.47502821 -31.13117716 42.32966256 -31.11352539 51.03198242 C-31.11341209 52.89357246 -31.11341209 52.89357246 -31.11329651 54.79277039 C-31.10818991 56.14700358 -31.10297391 57.50123637 -31.09765625 58.85546875 C-31.09579083 60.24123585 -31.09436751 61.62700361 -31.09336853 63.01277161 C-31.0895531 66.6574791 -31.07973113 70.30214665 -31.06866455 73.94683838 C-31.0584295 77.66702738 -31.05386642 81.38722285 -31.04882812 85.10742188 C-31.03810798 92.40496822 -31.02051907 99.70247342 -31 107 C-37.6 107 -44.2 107 -51 107 C-51 72.68 -51 38.36 -51 3 C-44.4 3 -37.8 3 -31 3 C-30.67 5.31 -30.34 7.62 -30 10 C-29.31035156 9.45730469 -28.62070313 8.91460937 -27.91015625 8.35546875 C-18.70182634 1.34501182 -11.6913285 -2.50528468 0 0 Z " fill="#000000" transform="translate(245,190)"/>
<path d="M0 0 C6.6 0 13.2 0 20 0 C20 34.32 20 68.64 20 104 C13.4 104 6.8 104 0 104 C0 69.68 0 35.36 0 0 Z " fill="#000000" transform="translate(149,193)"/>
<path d="M0 0 C7.38978573 3.96113295 10.62671398 9.40357945 13.22265625 17.19140625 C14.08275065 25.9520821 13.43250037 32.9291993 8.22265625 40.19140625 C3.34647725 45.7777084 -2.28998739 48.63281417 -9.6015625 49.54296875 C-18.54708959 49.97821847 -24.73935264 47.43935562 -31.65234375 41.87890625 C-37.03407674 35.07259687 -39.72701253 27.87218143 -38.77734375 19.19140625 C-36.72242357 11.47664878 -33.16356032 5.22861069 -26.5546875 0.65234375 C-17.65339298 -4.39783603 -9.22279261 -4.19483594 0 0 Z M-30.33984375 11.37890625 C-33.65468457 17.08307677 -34.64459814 22.37886583 -33.17578125 28.8359375 C-30.72125641 35.95405953 -26.82158853 39.78672017 -20.46484375 43.56640625 C-12.87336821 45.33186568 -6.81744152 44.53104747 0.01953125 40.7578125 C4.23363299 37.76161605 6.58315851 34.10989947 8.22265625 29.19140625 C8.92658921 22.04821767 8.60505538 16.06459218 4.22265625 10.19140625 C-0.69161779 4.84876934 -5.28459242 2.5988939 -12.52734375 1.75390625 C-19.818383 2.0053214 -26.04474506 5.56970803 -30.33984375 11.37890625 Z " fill="#000000" transform="translate(1216.77734375,160.80859375)"/>
<path d="M0 0 C3.02089981 1.7475743 5.41608883 3.83217766 7 7 C7.51512617 11.09157355 7.94367269 15.23589546 5.953125 18.95703125 C2.86793919 22.68647644 1.03209251 23.89679075 -3.75 24.375 C-7.10058068 24.35058775 -8.84894532 23.75601354 -11.4375 21.625 C-15.39719931 17.56872266 -15.28199594 14.95914849 -15.21875 9.48046875 C-14.93537507 6.26719951 -14.12264382 4.42587865 -12 2 C-8.55632333 -0.67841519 -4.17635655 -0.80961998 0 0 Z " fill="#010101" transform="translate(163,159)"/>
<path d="M0 0 C2.536875 -0.061875 5.07375 -0.12375 7.6875 -0.1875 C8.47729248 -0.21481201 9.26708496 -0.24212402 10.08081055 -0.27026367 C14.60318145 -0.32344113 17.43303549 0.18325747 21 3 C22.56935594 6.13871188 22.35201103 8.53855822 22 12 C19.5 14.9375 19.5 14.9375 17 17 C17.5053125 17.68707031 18.010625 18.37414062 18.53125 19.08203125 C19.1809375 19.98308594 19.830625 20.88414062 20.5 21.8125 C21.1496875 22.70582031 21.799375 23.59914062 22.46875 24.51953125 C24 27 24 27 24 30 C21.375 30.625 21.375 30.625 18 30 C16.30928974 27.55046702 14.98815558 24.98538236 13.58984375 22.359375 C11.86945459 19.80626677 11.04604606 19.15081103 8.125 18.375 C6.578125 18.189375 6.578125 18.189375 5 18 C5 21.96 5 25.92 5 30 C3.35 30 1.7 30 0 30 C0 20.1 0 10.2 0 0 Z M5 5 C5 7.31 5 9.62 5 12 C6.43655854 12.08131463 7.8744483 12.13933559 9.3125 12.1875 C10.11300781 12.22230469 10.91351562 12.25710937 11.73828125 12.29296875 C14.47851584 11.93801608 15.29171079 11.10633718 17 9 C16.34 7.68 15.68 6.36 15 5 C11.7 5 8.4 5 5 5 Z " fill="#000000" transform="translate(1193,170)"/>
<path d="M0 0 C6.27 0 12.54 0 19 0 C20.50930882 3.01861764 20.18438844 6.12991303 20.1875 9.4375 C20.19974609 10.11876953 20.21199219 10.80003906 20.22460938 11.50195312 C20.23555848 15.22829809 20.12005619 16.81991571 18 20 C15.2609515 20.30400756 12.79736367 20.41829599 10.0625 20.375 C9.33353516 20.38660156 8.60457031 20.39820312 7.85351562 20.41015625 C4.97004835 20.3942985 2.59025513 20.3119423 0.01171875 18.94921875 C-1.57958973 15.8833387 -1.35185045 12.80174755 -1.25 9.4375 C-1.24226562 8.40979492 -1.24226562 8.40979492 -1.234375 7.36132812 C-1.15506269 2.31012538 -1.15506269 2.31012538 0 0 Z " fill="#87C023" transform="translate(538,24)"/>
<path d="M0 0 C0.33 0 0.66 0 1 0 C1.06991506 8.39805072 1.12301976 16.79597716 1.15543652 25.1942482 C1.17100523 29.09509915 1.19207974 32.99574907 1.22631836 36.89648438 C1.25922949 40.67016285 1.27691889 44.44364957 1.28463173 48.21746063 C1.29011891 49.64777387 1.30083163 51.07807819 1.31719017 52.50830841 C1.49674266 68.8772316 -1.30026668 81.65281679 -12.640625 93.734375 C-21.65408814 102.38968729 -33.40830588 105.40207334 -45.671875 105.28125 C-58.30934706 104.21329461 -67.64132557 98.6538759 -76.43359375 89.96484375 C-78.05850604 87.92661212 -78.59707587 86.54806952 -79 84 C-78.34 84.680625 -77.68 85.36125 -77 86.0625 C-76.00478655 87.04653128 -75.0041537 88.02509349 -74 89 C-73.11054688 89.86625 -73.11054688 89.86625 -72.203125 90.75 C-62.51089096 99.74439319 -52.58552099 101.56319299 -39.70703125 101.3515625 C-28.40809205 100.80797092 -18.38805468 95.06200056 -10.66796875 87.03515625 C-1.60948434 75.98253241 -0.55481534 61.75069521 -0.48828125 48.046875 C-0.47138869 46.65153473 -0.45323251 45.25620925 -0.43388367 43.86090088 C-0.38687295 40.23118722 -0.35675025 36.6015335 -0.33044434 32.97161865 C-0.30038824 29.25048989 -0.25394577 25.52956698 -0.20898438 21.80859375 C-0.12350997 14.53916578 -0.0559202 7.26972188 0 0 Z " fill="#F1F1F1" transform="translate(411,195)"/>
<path d="M0 0 C3.52013397 2.76366164 4.71730053 6.70711914 6.29052734 10.7409668 C6.60480179 11.52834732 6.91907623 12.31572784 7.24287415 13.12696838 C7.92395621 14.83619392 8.60146916 16.546845 9.27582932 18.25873375 C10.34551438 20.97352424 11.42482396 23.68430577 12.50674438 26.39424133 C15.19346916 33.12963677 17.86350174 39.87162159 20.53399658 46.61346436 C22.78908143 52.30476678 25.05054883 57.9934523 27.32042313 63.67887306 C28.37966871 66.33957374 29.42954342 69.00384447 30.47909546 71.66838074 C31.13583223 73.3164571 31.79300587 74.96435946 32.45068359 76.61206055 C32.87951088 77.71198837 32.87951088 77.71198837 33.31700134 78.83413696 C36.64216756 87.10089205 40.71955977 94.85977988 49 99 C53.74879703 99.46556834 57.23615175 99.06320233 61.3125 96.43359375 C68.45513682 90.36565923 71.61009871 80.45071136 75 72 C76.40237918 76.20713755 74.67438179 78.84452298 72.9375 82.6875 C72.61386475 83.40776367 72.29022949 84.12802734 71.95678711 84.87011719 C68.48122218 92.39894576 65.05526196 99.05961377 57.0703125 102.4296875 C53.39569409 103.44194087 50.55890468 103.40974088 47 102 C38.30816186 96.38820098 33.99057069 87.67894206 30.3112793 78.32080078 C29.812752 77.08028709 29.812752 77.08028709 29.30415344 75.81471252 C28.21994912 73.11119902 27.14687814 70.40342501 26.07421875 67.6953125 C25.31965603 65.80558516 24.56450455 63.91609281 23.80879211 62.02682495 C22.23321408 58.08324986 20.66280193 54.13767243 19.09643555 50.19042969 C17.08540794 45.12304896 15.06447355 40.0596937 13.0400877 34.9976368 C11.48368149 31.10414079 9.93094673 27.20918972 8.37949562 23.31371689 C7.63507202 21.44502422 6.88985333 19.57664808 6.14383507 17.70859146 C5.10628437 15.10805448 4.07332318 12.50574412 3.04174805 9.90283203 C2.57664322 8.74025124 2.57664322 8.74025124 2.10214233 7.55418396 C0 2.2290781 0 2.2290781 0 0 Z " fill="#DBDBDB" transform="translate(31,195)"/>
<path d="M0 0 C2.31531317 2.31531317 2.74812187 3.90648156 3.75 7 C5.81689956 12.84856023 8.51984981 17.87644555 12 23 C12.42796875 23.63808594 12.8559375 24.27617187 13.296875 24.93359375 C19.40295112 32.99720604 30.11022359 38.41989307 40 40 C51.13684735 41.02525637 60.37410701 39.02965107 71 36 C73.66244011 35.31489391 76.33025644 34.65634891 79 34 C79 34.99 79 35.98 79 37 C76.43848317 37.81571218 73.87587372 38.62766131 71.3125 39.4375 C70.59126953 39.66759766 69.87003906 39.89769531 69.12695312 40.13476562 C55.60428593 44.395332 38.92648607 45.70892186 26 39 C13.80256377 31.77611731 4.95844066 20.82874213 1.18359375 7.01171875 C0.71134936 4.67691607 0.30310447 2.36212447 0 0 Z " fill="#F1F1F1" transform="translate(432,254)"/>
<path d="M0 0 C1.0725 0.556875 2.145 1.11375 3.25 1.6875 C8.25749833 5.89835087 12.04139439 10.95235975 12.875 17.5625 C12.91625 18.696875 12.9575 19.83125 13 21 C12.7215625 20.44054687 12.443125 19.88109375 12.15625 19.3046875 C11.7746875 18.54414063 11.393125 17.78359375 11 17 C10.6184375 16.21882813 10.236875 15.43765625 9.84375 14.6328125 C5.71886906 6.93463354 0.82605365 3.03014836 -7.41015625 0.16015625 C-18.77778334 -2.66788756 -30.30759253 -0.61277814 -40.25390625 5.3515625 C-47.48953495 10.33521836 -50.06098775 15.79768674 -51.703125 24.27734375 C-51.85007812 25.13005859 -51.85007812 25.13005859 -52 26 C-52.33 26 -52.66 26 -53 26 C-53.9938833 18.71152247 -50.79171879 13.09104484 -47 7 C-45.08986427 4.7639881 -43.52611763 3.64970948 -41 2 C-40.45472656 1.63519531 -39.90945313 1.27039063 -39.34765625 0.89453125 C-27.94765851 -6.26601155 -11.69593877 -6.43052572 0 0 Z " fill="#F1F1F1" transform="translate(504,215)"/>
<path d="M0 0 C1.78947815 2.68421723 2.73092143 4.81629723 3.8125 7.8125 C6.59764361 14.82126799 9.89067278 18.85416248 16.75219727 22.16174316 C20.50981495 23.56304438 24.11880409 23.60319234 28.09375 23.609375 C28.92588013 23.62591125 29.75801025 23.64244751 30.61535645 23.65948486 C33.24364852 23.70763046 35.87136354 23.7292603 38.5 23.75 C40.29429935 23.7781878 42.0885722 23.80811912 43.8828125 23.83984375 C48.25516074 23.91337973 52.6271949 23.96315766 57 24 C57 24.99 57 25.98 57 27 C52.01956391 27.07461471 47.03945911 27.12881987 42.05859375 27.16479492 C40.36712978 27.17980505 38.67570422 27.20021963 36.984375 27.22631836 C34.54156976 27.26304686 32.0992827 27.27980411 29.65625 27.29296875 C28.53700134 27.31619453 28.53700134 27.31619453 27.3951416 27.33988953 C19.7787056 27.34228604 13.26272837 25.08038795 7.60546875 19.86328125 C2.60412008 14.0587963 0.41900621 7.5421118 0 0 Z " fill="#EBEBEB" transform="translate(257,270)"/>
<path d="M0 0 C1.40237918 4.20713755 -0.32561821 6.84452298 -2.0625 10.6875 C-2.38613525 11.40776367 -2.70977051 12.12802734 -3.04321289 12.87011719 C-6.51877782 20.39894576 -9.94473804 27.05961377 -17.9296875 30.4296875 C-21.59677596 31.43986659 -24.45288686 31.4270784 -28 30 C-32.36563924 26.99029539 -36.0438742 23.41144926 -39 19 C-39 18.34 -39 17.68 -39 17 C-38.34 17 -37.68 17 -37 17 C-35.17270951 18.93530766 -33.53104622 20.99047623 -31.8515625 23.0546875 C-28.97100078 26.08110045 -26.82053991 26.90710869 -22.6875 27.375 C-17.36537048 26.83376649 -13.92301694 25.18743177 -10.4375 21.22265625 C-5.80115625 14.73901929 -2.95087378 7.35625626 0 0 Z " fill="#EEEEEE" transform="translate(106,267)"/>
<path d="M0 0 C12.87 0 25.74 0 39 0 C39 0.99 39 1.98 39 3 C26.13 3 13.26 3 0 3 C0 2.01 0 1.02 0 0 Z " fill="#FFFFFF" transform="translate(277,212)"/>
<path d="M0 0 C1.26328125 0.01804688 2.5265625 0.03609375 3.828125 0.0546875 C4.79234375 0.07789063 5.7565625 0.10109375 6.75 0.125 C6.75 1.115 6.75 2.105 6.75 3.125 C6.13253906 3.09019531 5.51507813 3.05539063 4.87890625 3.01953125 C-3.11461068 2.76403071 -9.87840619 3.61159909 -16 9.125 C-19.42376995 12.84268987 -21.3065504 17.02769654 -23.20703125 21.671875 C-24.25 24.125 -24.25 24.125 -26.25 27.125 C-25.90724865 19.41309466 -22.44994927 12.57062676 -17.21484375 6.93359375 C-11.46169686 1.78264542 -7.88414092 -0.14600261 0 0 Z " fill="#F4F4F4" transform="translate(239.25,207.875)"/>
<path d="M0 0 C0.61875 0.78375 1.2375 1.5675 1.875 2.375 C4.34726229 5.7945263 4.34726229 5.7945263 7.98828125 7.3359375 C12.08156356 7.40473216 14.37508662 7.38558485 17.9375 5.1875 C20.13429109 2.97970018 20.13429109 2.97970018 22 0 C21.80839429 4.11952267 21.22298348 5.74982341 18.4375 8.875 C15.35503771 11.15173473 12.76890036 11.74722728 8.96484375 11.484375 C5.2345171 10.56477161 3.5621236 8.8745777 1 6 C0.125 2.6875 0.125 2.6875 0 0 Z " fill="#E1E1E1" transform="translate(148,172)"/>
<path d="M0 0 C6.93 0 13.86 0 21 0 C21 0.99 21 1.98 21 3 C14.07 3 7.14 3 0 3 C0 2.01 0 1.02 0 0 Z " fill="#E9E9E9" transform="translate(557,294)"/>
<path d="M0 0 C6.93 0 13.86 0 21 0 C21 0.99 21 1.98 21 3 C14.07 3 7.14 3 0 3 C0 2.01 0 1.02 0 0 Z " fill="#FFFFFF" transform="translate(517,295)"/>
<path d="M0 0 C6.6 0 13.2 0 20 0 C20 0.99 20 1.98 20 3 C13.4 3 6.8 3 0 3 C0 2.01 0 1.02 0 0 Z " fill="#E9E9E9" transform="translate(194,294)"/>
<path d="M0 0 C6.6 0 13.2 0 20 0 C20 0.99 20 1.98 20 3 C13.4 3 6.8 3 0 3 C0 2.01 0 1.02 0 0 Z " fill="#E9E9E9" transform="translate(149,294)"/>
<path d="M0 0 C0.66 0.33 1.32 0.66 2 1 C1.56429687 1.43828125 1.12859375 1.8765625 0.6796875 2.328125 C-3.93335612 7.24071691 -6.88972233 12.26814559 -9.73828125 18.36328125 C-11 21 -11 21 -13 24 C-12.63088035 15.69480779 -8.45250612 8.15384818 -2.625 2.3125 C-1.325625 1.1678125 -1.325625 1.1678125 0 0 Z " fill="#EAEAEA" transform="translate(226,211)"/>
<path d="M0 0 C0.66 0.33 1.32 0.66 2 1 C1.52949219 1.556875 1.05898438 2.11375 0.57421875 2.6875 C-4.64468249 9.0841657 -7.70755461 14.72834949 -9 23 C-9.33 23 -9.66 23 -10 23 C-10.98872336 15.74936206 -7.73924482 10.08056096 -4 4 C-1.796875 1.63671875 -1.796875 1.63671875 0 0 Z " fill="#DCDCDC" transform="translate(461,218)"/>
<path d="M0 0 C1.43568342 4.30705026 -0.5113113 7.08406945 -2.3125 11 C-2.63412109 11.72445313 -2.95574219 12.44890625 -3.28710938 13.1953125 C-4.69861172 16.33713702 -6.08013623 19.12020435 -8 22 C-8.66 22 -9.32 22 -10 22 C-9.72027344 21.44957031 -9.44054687 20.89914062 -9.15234375 20.33203125 C-5.8604966 13.67022532 -2.88988187 6.84445707 0 0 Z " fill="#E1E1E1" transform="translate(106,267)"/>
<path d="M0 0 C3.47132095 1.40929697 4.88093274 2.90605083 6.75 6.125 C7.39195312 7.21167969 7.39195312 7.21167969 8.046875 8.3203125 C8.51867187 9.15175781 8.51867187 9.15175781 9 10 C5.52867905 8.59070303 4.11906726 7.09394917 2.25 3.875 C1.60804688 2.78832031 1.60804688 2.78832031 0.953125 1.6796875 C0.63859375 1.12539063 0.3240625 0.57109375 0 0 Z " fill="#ECECEC" transform="translate(438,272)"/>
</svg>
